<svg width="122" height="32" viewBox="0 0 122 32" fill="none" xmlns="http://www.w3.org/2000/svg">
<g opacity="0.8">
<path d="M10.4762 22.2857C16.262 22.2857 20.9524 17.5954 20.9524 11.8095C20.9524 11.1538 20.8921 10.5121 20.7769 9.8898C20.1545 9.77454 19.5129 9.71429 18.8571 9.71429C13.0713 9.71429 8.38095 14.4046 8.38095 20.1905C8.38095 20.8462 8.4412 21.4879 8.55645 22.1102C9.1788 22.2255 9.82046 22.2857 10.4762 22.2857Z" fill="#667085"/>
<path fill-rule="evenodd" clip-rule="evenodd" d="M8.55646 22.1102C3.68745 21.2085 0 16.9396 0 11.8095C0 6.02369 4.69035 1.33334 10.4762 1.33334C15.6063 1.33334 19.8752 5.02079 20.7769 9.8898C20.1545 9.77454 19.5129 9.7143 18.8571 9.7143C13.0713 9.7143 8.38095 14.4046 8.38095 20.1905C8.38095 20.8462 8.4412 21.4879 8.55646 22.1102Z" fill="#667085"/>
<path fill-rule="evenodd" clip-rule="evenodd" d="M10.4761 22.2857C16.262 22.2857 20.9523 17.5953 20.9523 11.8095C20.9523 11.1537 20.8921 10.5121 20.7768 9.88974C25.6459 10.7915 29.3333 15.0603 29.3333 20.1904C29.3333 25.9763 24.6429 30.6666 18.8571 30.6666C13.727 30.6666 9.45813 26.9792 8.55641 22.1102C9.17876 22.2254 9.82042 22.2857 10.4761 22.2857Z" fill="#98A2B3"/>
<path d="M49.4853 19.2693C49.112 20.4764 48.4587 21.3787 47.5253 21.976C46.592 22.5609 45.5031 22.8533 44.2587 22.8533C43.0391 22.8533 41.9813 22.5982 41.0853 22.088C40.2018 21.5778 39.5173 20.8498 39.032 19.904C38.5591 18.9582 38.3227 17.8258 38.3227 16.5067C38.3227 15.1876 38.5653 14.0551 39.0507 13.1093C39.536 12.1636 40.2205 11.4356 41.104 10.9253C41.9876 10.4151 43.0267 10.16 44.2213 10.16C45.4782 10.16 46.5547 10.4276 47.4507 10.9627C48.3591 11.4853 48.9813 12.2818 49.3173 13.352L46.984 14.3413C46.7725 13.5947 46.4489 13.0658 46.0133 12.7547C45.5778 12.4311 45.0178 12.2693 44.3333 12.2693C43.3129 12.2693 42.4978 12.6364 41.888 13.3707C41.2907 14.0924 40.992 15.1378 40.992 16.5067C40.992 17.8631 41.2782 18.9084 41.8507 19.6427C42.4231 20.3769 43.2507 20.744 44.3333 20.744C45.0053 20.744 45.584 20.5636 46.0693 20.2027C46.5671 19.8418 46.9156 19.2942 47.1147 18.56L49.4853 19.2693Z" fill="#475467"/>
<path d="M52.7075 11.9893C51.6498 11.9893 51.1209 11.5351 51.1209 10.6267C51.1209 9.70578 51.6498 9.24533 52.7075 9.24533C53.7653 9.24533 54.2942 9.70578 54.2942 10.6267C54.2942 11.5351 53.7653 11.9893 52.7075 11.9893ZM53.9769 13.3333V22.6667H51.4195V13.3333H53.9769Z" fill="#475467"/>
<path d="M56.6878 22.6667V13.3333H58.9091L59.0771 15.1627C59.3135 14.528 59.6682 14.0364 60.1411 13.688C60.6264 13.3271 61.2362 13.1467 61.9704 13.1467C62.406 13.1467 62.742 13.2151 62.9784 13.352L62.6798 15.4987C62.5553 15.4613 62.3998 15.4302 62.2131 15.4053C62.0389 15.368 61.8086 15.3493 61.5224 15.3493C61.1366 15.3493 60.7695 15.4427 60.4211 15.6293C60.0851 15.8036 59.8051 16.0773 59.5811 16.4507C59.3571 16.8116 59.2451 17.272 59.2451 17.832V22.6667H56.6878Z" fill="#475467"/>
<path d="M68.6178 13.1467C69.8622 13.1467 70.8267 13.4142 71.5111 13.9493C72.208 14.4844 72.6685 15.1316 72.8925 15.8907L70.5031 16.7493C70.2542 15.6169 69.6382 15.0507 68.6551 15.0507C67.9458 15.0507 67.392 15.2996 66.9938 15.7973C66.608 16.2951 66.4151 17.0356 66.4151 18.0187C66.4151 19.0142 66.6142 19.7547 67.0125 20.24C67.4231 20.7129 67.9769 20.9493 68.6738 20.9493C69.7565 20.9493 70.4036 20.3956 70.6151 19.288L72.9298 20.0347C72.7182 20.8684 72.2454 21.5467 71.5111 22.0693C70.7894 22.592 69.8498 22.8533 68.6925 22.8533C67.7218 22.8533 66.8694 22.6604 66.1351 22.2747C65.4134 21.8889 64.8534 21.3351 64.4551 20.6133C64.0569 19.8916 63.8578 19.0204 63.8578 18C63.8578 16.9796 64.0569 16.1084 64.4551 15.3867C64.8658 14.6649 65.4258 14.1111 66.1351 13.7253C66.8569 13.3396 67.6845 13.1467 68.6178 13.1467Z" fill="#475467"/>
<path d="M79.1729 13.1467C80.1063 13.1467 80.9338 13.3396 81.6556 13.7253C82.3774 14.1111 82.9374 14.6649 83.3356 15.3867C83.7463 16.1084 83.9516 16.9796 83.9516 18C83.9516 19.0204 83.7463 19.8916 83.3356 20.6133C82.9374 21.3351 82.3774 21.8889 81.6556 22.2747C80.9338 22.6604 80.1063 22.8533 79.1729 22.8533C78.2271 22.8533 77.3934 22.6604 76.6716 22.2747C75.9623 21.8889 75.4023 21.3351 74.9916 20.6133C74.5934 19.8916 74.3943 19.0204 74.3943 18C74.3943 16.9796 74.5934 16.1084 74.9916 15.3867C75.4023 14.6649 75.9623 14.1111 76.6716 13.7253C77.3934 13.3396 78.2271 13.1467 79.1729 13.1467ZM79.1729 15.0507C78.476 15.0507 77.9285 15.2996 77.5303 15.7973C77.1445 16.2827 76.9516 17.0169 76.9516 18C76.9516 18.9831 77.1445 19.7236 77.5303 20.2213C77.9285 20.7067 78.476 20.9493 79.1729 20.9493C79.8574 20.9493 80.3925 20.7067 80.7783 20.2213C81.1765 19.7236 81.3756 18.9831 81.3756 18C81.3756 17.0169 81.1765 16.2827 80.7783 15.7973C80.3925 15.2996 79.8574 15.0507 79.1729 15.0507Z" fill="#475467"/>
<path d="M90.3474 13.1467C91.2807 13.1467 92.1083 13.3396 92.8301 13.7253C93.5518 14.1111 94.1118 14.6649 94.5101 15.3867C94.9207 16.1084 95.1261 16.9796 95.1261 18C95.1261 19.0204 94.9207 19.8916 94.5101 20.6133C94.1118 21.3351 93.5518 21.8889 92.8301 22.2747C92.1083 22.6604 91.2807 22.8533 90.3474 22.8533C89.4016 22.8533 88.5678 22.6604 87.8461 22.2747C87.1367 21.8889 86.5767 21.3351 86.1661 20.6133C85.7678 19.8916 85.5687 19.0204 85.5687 18C85.5687 16.9796 85.7678 16.1084 86.1661 15.3867C86.5767 14.6649 87.1367 14.1111 87.8461 13.7253C88.5678 13.3396 89.4016 13.1467 90.3474 13.1467ZM90.3474 15.0507C89.6505 15.0507 89.103 15.2996 88.7047 15.7973C88.319 16.2827 88.1261 17.0169 88.1261 18C88.1261 18.9831 88.319 19.7236 88.7047 20.2213C89.103 20.7067 89.6505 20.9493 90.3474 20.9493C91.0318 20.9493 91.567 20.7067 91.9527 20.2213C92.351 19.7236 92.5501 18.9831 92.5501 18C92.5501 17.0169 92.351 16.2827 91.9527 15.7973C91.567 15.2996 91.0318 15.0507 90.3474 15.0507Z" fill="#475467"/>
<path d="M99.7859 9.24533V19.792C99.7859 20.2276 99.8605 20.5324 100.01 20.7067C100.159 20.8809 100.408 20.968 100.757 20.968C100.968 20.968 101.142 20.9556 101.279 20.9307C101.416 20.9058 101.59 20.856 101.802 20.7813L101.578 22.4613C101.366 22.5858 101.099 22.6791 100.775 22.7413C100.464 22.816 100.153 22.8533 99.8419 22.8533C98.9334 22.8533 98.2677 22.6356 97.8445 22.2C97.4339 21.752 97.2285 21.0427 97.2285 20.072V9.24533H99.7859Z" fill="#475467"/>
<path d="M107.557 22.8533C106.089 22.8533 104.913 22.4302 104.029 21.584C103.146 20.7253 102.704 19.5307 102.704 18C102.704 16.9796 102.903 16.1084 103.301 15.3867C103.7 14.6649 104.253 14.1111 104.963 13.7253C105.685 13.3396 106.506 13.1467 107.427 13.1467C108.373 13.1467 109.175 13.3396 109.835 13.7253C110.494 14.0987 110.998 14.6151 111.347 15.2747C111.695 15.9218 111.869 16.6622 111.869 17.496C111.869 17.7449 111.863 17.9813 111.851 18.2053C111.838 18.4293 111.82 18.6284 111.795 18.8027H105.205C105.305 19.5244 105.554 20.0658 105.952 20.4267C106.363 20.7751 106.892 20.9493 107.539 20.9493C108.086 20.9493 108.528 20.8436 108.864 20.632C109.2 20.4204 109.461 20.128 109.648 19.7547L111.683 20.5387C111.384 21.2729 110.861 21.8453 110.115 22.256C109.368 22.6542 108.516 22.8533 107.557 22.8533ZM107.408 15.032C106.201 15.032 105.473 15.6978 105.224 17.0293H109.424C109.349 16.3822 109.138 15.8907 108.789 15.5547C108.453 15.2062 107.993 15.032 107.408 15.032Z" fill="#475467"/>
<path d="M117.77 22.8533C116.824 22.8533 115.959 22.6853 115.175 22.3493C114.404 22.0133 113.775 21.5404 113.29 20.9307L114.765 19.4373C115.063 19.8853 115.462 20.2524 115.959 20.5387C116.457 20.8249 117.048 20.968 117.733 20.968C118.218 20.968 118.604 20.8996 118.89 20.7627C119.189 20.6133 119.338 20.3831 119.338 20.072C119.338 19.8729 119.27 19.7049 119.133 19.568C118.996 19.4187 118.722 19.3004 118.311 19.2133L116.669 18.8773C115.586 18.6533 114.814 18.3173 114.354 17.8693C113.906 17.4089 113.682 16.8178 113.682 16.096C113.682 15.5858 113.831 15.1067 114.13 14.6587C114.441 14.2107 114.902 13.8498 115.511 13.576C116.121 13.2898 116.88 13.1467 117.789 13.1467C119.68 13.1467 121.037 13.7253 121.858 14.8827L120.327 16.376C120.054 15.9404 119.693 15.6107 119.245 15.3867C118.809 15.1502 118.349 15.032 117.863 15.032C116.768 15.032 116.221 15.3369 116.221 15.9467C116.221 16.1458 116.308 16.32 116.482 16.4693C116.656 16.6062 116.974 16.7244 117.434 16.824L119.338 17.216C120.259 17.4027 120.918 17.72 121.317 18.168C121.715 18.6036 121.914 19.1324 121.914 19.7547C121.914 20.6507 121.553 21.3911 120.831 21.976C120.122 22.5609 119.102 22.8533 117.77 22.8533Z" fill="#475467"/>
</g>
</svg>
