<svg width="125" height="32" viewBox="0 0 125 32" fill="none" xmlns="http://www.w3.org/2000/svg">
<g opacity="0.8">
<path fill-rule="evenodd" clip-rule="evenodd" d="M15 24.3111C19.5901 24.3111 23.3111 20.5901 23.3111 16C23.3111 11.4099 19.5901 7.6889 15 7.6889C10.4099 7.6889 6.68893 11.4099 6.68893 16C6.68893 20.5901 10.4099 24.3111 15 24.3111ZM15 30.6667C23.1002 30.6667 29.6667 24.1002 29.6667 16C29.6667 7.89983 23.1002 1.33334 15 1.33334C6.89986 1.33334 0.333374 7.89983 0.333374 16C0.333374 24.1002 6.89986 30.6667 15 30.6667Z" fill="#667085"/>
<path d="M15.1678 16.3211C16.6952 14.7938 19.1715 14.7938 20.6989 16.3211L28.3042 23.9265C29.8316 25.4539 29.8316 27.9302 28.3042 29.4576V29.4576C26.7769 30.985 24.3005 30.985 22.7731 29.4576L15.1678 21.8523C13.6404 20.3249 13.6404 17.8485 15.1678 16.3211V16.3211Z" fill="#98A2B3"/>
<path d="M17.3033 23.9878L22.1336 28.8181C24.4504 27.526 26.3806 25.6239 27.707 23.3292L22.9163 18.5385C22.0749 21.1648 19.9627 23.2224 17.3033 23.9878Z" fill="#667085"/>
<path d="M53.3467 24.0667C52.9236 24.5893 52.4072 24.9876 51.7974 25.2613C51.2 25.5351 50.5405 25.672 49.8187 25.672C48.848 25.672 47.9707 25.4605 47.1867 25.0373C46.4027 24.6267 45.5067 23.8925 44.4987 22.8347C43.3165 22.6853 42.2587 22.3058 41.3254 21.696C40.4045 21.0862 39.6827 20.3022 39.16 19.344C38.6498 18.3733 38.3947 17.3031 38.3947 16.1333C38.3947 14.8516 38.6996 13.7005 39.3094 12.68C39.9316 11.6471 40.784 10.8382 41.8667 10.2533C42.9618 9.66846 44.1876 9.37601 45.544 9.37601C46.9005 9.37601 48.12 9.66846 49.2027 10.2533C50.2854 10.8382 51.1378 11.6471 51.76 12.68C52.3823 13.7005 52.6934 14.8516 52.6934 16.1333C52.6934 17.6516 52.264 18.9831 51.4054 20.128C50.5592 21.2729 49.4329 22.0693 48.0267 22.5173C48.3378 22.8409 48.6365 23.0711 48.9227 23.208C49.2214 23.3573 49.5387 23.432 49.8747 23.432C50.6836 23.432 51.3929 23.1085 52.0027 22.4613L53.3467 24.0667ZM41.456 16.1333C41.456 16.9422 41.6303 17.664 41.9787 18.2987C42.3396 18.9333 42.8312 19.4311 43.4534 19.792C44.0756 20.1405 44.7725 20.3147 45.544 20.3147C46.3156 20.3147 47.0125 20.1405 47.6347 19.792C48.2569 19.4311 48.7423 18.9333 49.0907 18.2987C49.4516 17.664 49.632 16.9422 49.632 16.1333C49.632 15.3245 49.4516 14.6027 49.0907 13.968C48.7423 13.3333 48.2569 12.8418 47.6347 12.4933C47.0125 12.1325 46.3156 11.952 45.544 11.952C44.7725 11.952 44.0756 12.1325 43.4534 12.4933C42.8312 12.8418 42.3396 13.3333 41.9787 13.968C41.6303 14.6027 41.456 15.3245 41.456 16.1333Z" fill="#475467"/>
<path d="M64.878 12.624V22.6667H62.1154V21.472C61.7296 21.9076 61.2692 22.2436 60.734 22.48C60.1989 22.704 59.6203 22.816 58.998 22.816C57.6789 22.816 56.6336 22.4365 55.862 21.6773C55.0905 20.9182 54.7047 19.792 54.7047 18.2987V12.624H57.6167V17.8693C57.6167 19.4871 58.2949 20.296 59.6514 20.296C60.3483 20.296 60.9083 20.072 61.3314 19.624C61.7545 19.1636 61.966 18.4853 61.966 17.5893V12.624H64.878Z" fill="#475467"/>
<path d="M72.3545 22.816C71.2967 22.816 70.3447 22.5982 69.4985 22.1627C68.6647 21.7147 68.0114 21.0987 67.5385 20.3147C67.0656 19.5307 66.8292 18.6409 66.8292 17.6453C66.8292 16.6498 67.0656 15.76 67.5385 14.976C68.0114 14.192 68.6647 13.5822 69.4985 13.1467C70.3447 12.6987 71.2967 12.4747 72.3545 12.4747C73.4123 12.4747 74.358 12.6987 75.1918 13.1467C76.0256 13.5822 76.6789 14.192 77.1518 14.976C77.6247 15.76 77.8612 16.6498 77.8612 17.6453C77.8612 18.6409 77.6247 19.5307 77.1518 20.3147C76.6789 21.0987 76.0256 21.7147 75.1918 22.1627C74.358 22.5982 73.4123 22.816 72.3545 22.816ZM72.3545 20.4267C73.1012 20.4267 73.7109 20.1778 74.1838 19.68C74.6692 19.1698 74.9118 18.4916 74.9118 17.6453C74.9118 16.7991 74.6692 16.1271 74.1838 15.6293C73.7109 15.1191 73.1012 14.864 72.3545 14.864C71.6078 14.864 70.9918 15.1191 70.5065 15.6293C70.0211 16.1271 69.7785 16.7991 69.7785 17.6453C69.7785 18.4916 70.0211 19.1698 70.5065 19.68C70.9918 20.1778 71.6078 20.4267 72.3545 20.4267Z" fill="#475467"/>
<path d="M86.2849 22.1813C85.9987 22.3929 85.644 22.5547 85.2209 22.6667C84.8103 22.7662 84.3747 22.816 83.9143 22.816C82.7196 22.816 81.7925 22.5111 81.1329 21.9013C80.4858 21.2916 80.1623 20.3956 80.1623 19.2133V15.088H78.6129V12.848H80.1623V10.4027H83.0743V12.848H85.5756V15.088H83.0743V19.176C83.0743 19.5991 83.18 19.9289 83.3916 20.1653C83.6156 20.3893 83.9267 20.5013 84.3249 20.5013C84.7854 20.5013 85.1774 20.3769 85.5009 20.128L86.2849 22.1813Z" fill="#475467"/>
<path d="M87.9196 12.624H90.8316V22.6667H87.9196V12.624ZM89.3756 11.224C88.8405 11.224 88.4049 11.0685 88.0689 10.7573C87.7329 10.4462 87.5649 10.0605 87.5649 9.60001C87.5649 9.13957 87.7329 8.75379 88.0689 8.44268C88.4049 8.13157 88.8405 7.97601 89.3756 7.97601C89.9107 7.97601 90.3462 8.12535 90.6822 8.42401C91.0182 8.72268 91.1862 9.09601 91.1862 9.54401C91.1862 10.0293 91.0182 10.4338 90.6822 10.7573C90.3462 11.0685 89.9107 11.224 89.3756 11.224Z" fill="#475467"/>
<path d="M103.371 17.6827C103.371 17.72 103.353 17.9813 103.315 18.4667H95.7181C95.855 19.0889 96.1786 19.5805 96.6888 19.9413C97.199 20.3022 97.8337 20.4827 98.5928 20.4827C99.1155 20.4827 99.5759 20.408 99.9741 20.2587C100.385 20.0969 100.764 19.848 101.113 19.512L102.662 21.192C101.716 22.2747 100.335 22.816 98.5181 22.816C97.3857 22.816 96.3839 22.5982 95.5128 22.1627C94.6417 21.7147 93.9697 21.0987 93.4968 20.3147C93.0239 19.5307 92.7875 18.6409 92.7875 17.6453C92.7875 16.6622 93.0177 15.7787 93.4781 14.9947C93.951 14.1982 94.5919 13.5822 95.4008 13.1467C96.2221 12.6987 97.1368 12.4747 98.1448 12.4747C99.1279 12.4747 100.018 12.6862 100.814 13.1093C101.611 13.5325 102.233 14.1422 102.681 14.9387C103.141 15.7227 103.371 16.6373 103.371 17.6827ZM98.1635 14.6773C97.5039 14.6773 96.9501 14.864 96.5021 15.2373C96.0541 15.6107 95.7804 16.1209 95.6808 16.768H100.627C100.528 16.1333 100.254 15.6293 99.8061 15.256C99.3581 14.8702 98.8106 14.6773 98.1635 14.6773Z" fill="#475467"/>
<path d="M111.414 12.4747C112.659 12.4747 113.66 12.848 114.42 13.5947C115.191 14.3413 115.577 15.4489 115.577 16.9173V22.6667H112.665V17.3653C112.665 16.5689 112.491 15.9778 112.142 15.592C111.794 15.1938 111.29 14.9947 110.63 14.9947C109.896 14.9947 109.311 15.2249 108.876 15.6853C108.44 16.1333 108.222 16.8053 108.222 17.7013V22.6667H105.31V12.624H108.092V13.8C108.477 13.3769 108.956 13.0533 109.529 12.8293C110.101 12.5929 110.73 12.4747 111.414 12.4747Z" fill="#475467"/>
<path d="M124.694 22.1813C124.408 22.3929 124.053 22.5547 123.63 22.6667C123.219 22.7662 122.784 22.816 122.323 22.816C121.128 22.816 120.201 22.5111 119.542 21.9013C118.895 21.2916 118.571 20.3956 118.571 19.2133V15.088H117.022V12.848H118.571V10.4027H121.483V12.848H123.984V15.088H121.483V19.176C121.483 19.5991 121.589 19.9289 121.8 20.1653C122.024 20.3893 122.336 20.5013 122.734 20.5013C123.194 20.5013 123.586 20.3769 123.91 20.128L124.694 22.1813Z" fill="#475467"/>
</g>
</svg>
