<svg width="114" height="32" viewBox="0 0 114 32" fill="none" xmlns="http://www.w3.org/2000/svg">
<g opacity="0.8">
<rect x="0.888916" y="12.8" width="6.39999" height="6.39999" fill="#667085"/>
<rect x="20.0889" y="19.2" width="6.4" height="6.39999" transform="rotate(180 20.0889 19.2)" fill="#667085"/>
<path d="M7.28891 12.8L13.6889 6.39999V12.8L7.28891 19.2V12.8Z" fill="#D0D5DD"/>
<path d="M13.6889 19.2L7.28892 25.6L7.28892 19.2L13.6889 12.8L13.6889 19.2Z" fill="#98A2B3"/>
<path d="M0.888916 12.8L13.6889 0V6.39999L7.28891 12.8H0.888916Z" fill="#667085"/>
<path d="M20.0889 19.2L7.28891 32L7.28891 25.6L13.6889 19.2L20.0889 19.2Z" fill="#667085"/>
<path d="M34.0276 22.8533C33.0196 22.8533 32.0427 22.7102 31.0969 22.424C30.1636 22.1378 29.4231 21.7582 28.8756 21.2853L29.7156 19.4C30.2507 19.8231 30.904 20.1716 31.6756 20.4453C32.4596 20.7067 33.2436 20.8373 34.0276 20.8373C34.9982 20.8373 35.72 20.6818 36.1929 20.3707C36.6782 20.0596 36.9209 19.6489 36.9209 19.1387C36.9209 18.7653 36.784 18.4605 36.5102 18.224C36.2489 17.9751 35.9129 17.7822 35.5022 17.6453C35.0916 17.5085 34.5316 17.3529 33.8222 17.1787C32.8267 16.9422 32.0178 16.7058 31.3956 16.4693C30.7858 16.2329 30.2569 15.8658 29.8089 15.368C29.3734 14.8578 29.1556 14.1733 29.1556 13.3147C29.1556 12.5929 29.3485 11.9396 29.7342 11.3547C30.1325 10.7573 30.7236 10.2845 31.5076 9.93601C32.304 9.58757 33.2747 9.41334 34.4196 9.41334C35.216 9.41334 36 9.5129 36.7716 9.71201C37.5431 9.91112 38.2089 10.1973 38.7689 10.5707L38.0036 12.456C37.4311 12.12 36.8338 11.8649 36.2116 11.6907C35.5894 11.5165 34.9858 11.4293 34.4009 11.4293C33.4427 11.4293 32.7271 11.5911 32.2542 11.9147C31.7938 12.2382 31.5636 12.6676 31.5636 13.2027C31.5636 13.576 31.6942 13.8809 31.9556 14.1173C32.2294 14.3538 32.5716 14.5405 32.9822 14.6773C33.3929 14.8142 33.9529 14.9698 34.6622 15.144C35.6329 15.368 36.4294 15.6045 37.0516 15.8533C37.6738 16.0898 38.2027 16.4569 38.6382 16.9547C39.0862 17.4525 39.3102 18.1245 39.3102 18.9707C39.3102 19.6925 39.1111 20.3458 38.7129 20.9307C38.3271 21.5156 37.736 21.9822 36.9396 22.3307C36.1431 22.6791 35.1725 22.8533 34.0276 22.8533Z" fill="#475467"/>
<path d="M41.4925 12.6987H43.8258V22.6667H41.4925V12.6987ZM42.6685 11.056C42.2454 11.056 41.8907 10.9253 41.6045 10.664C41.3183 10.3902 41.1752 10.0542 41.1752 9.65601C41.1752 9.25779 41.3183 8.92801 41.6045 8.66668C41.8907 8.3929 42.2454 8.25601 42.6685 8.25601C43.0916 8.25601 43.4463 8.38668 43.7325 8.64801C44.0187 8.8969 44.1618 9.21423 44.1618 9.60001C44.1618 10.0107 44.0187 10.3591 43.7325 10.6453C43.4587 10.9191 43.104 11.056 42.6685 11.056Z" fill="#475467"/>
<path d="M49.9683 22.7973C49.1594 22.7973 48.3692 22.6916 47.5977 22.48C46.8261 22.2685 46.2101 22.0009 45.7497 21.6773L46.6457 19.904C47.0937 20.2027 47.6288 20.4453 48.251 20.632C48.8857 20.8062 49.5079 20.8933 50.1177 20.8933C51.5114 20.8933 52.2083 20.5262 52.2083 19.792C52.2083 19.4436 52.0279 19.2009 51.667 19.064C51.3185 18.9271 50.7523 18.7965 49.9683 18.672C49.147 18.5476 48.475 18.4045 47.9523 18.2427C47.4421 18.0809 46.9941 17.8009 46.6083 17.4027C46.235 16.992 46.0483 16.4258 46.0483 15.704C46.0483 14.7582 46.4403 14.0053 47.2243 13.4453C48.0208 12.8729 49.091 12.5867 50.435 12.5867C51.1194 12.5867 51.8039 12.6676 52.4883 12.8293C53.1728 12.9787 53.7328 13.184 54.1683 13.4453L53.2723 15.2187C52.4261 14.7209 51.4741 14.472 50.4163 14.472C49.7319 14.472 49.2092 14.5778 48.8483 14.7893C48.4999 14.9885 48.3257 15.256 48.3257 15.592C48.3257 15.9653 48.5123 16.2329 48.8857 16.3947C49.2714 16.544 49.8625 16.6871 50.659 16.824C51.4554 16.9485 52.1088 17.0916 52.619 17.2533C53.1292 17.4151 53.5648 17.6889 53.9257 18.0747C54.299 18.4605 54.4857 19.008 54.4857 19.7173C54.4857 20.6507 54.0812 21.3973 53.2723 21.9573C52.4634 22.5173 51.3621 22.7973 49.9683 22.7973Z" fill="#475467"/>
<path d="M65.6461 12.6987L60.9795 23.4693C60.5439 24.552 60.015 25.3111 59.3928 25.7467C58.7706 26.1947 58.0177 26.4187 57.1341 26.4187C56.6364 26.4187 56.1448 26.3378 55.6595 26.176C55.1741 26.0142 54.7759 25.7902 54.4648 25.504L55.3981 23.7867C55.6221 23.9982 55.8835 24.1662 56.1821 24.2907C56.4932 24.4151 56.8044 24.4773 57.1155 24.4773C57.5261 24.4773 57.8621 24.3716 58.1235 24.16C58.3972 23.9485 58.6461 23.5938 58.8701 23.096L59.0381 22.704L54.6888 12.6987H57.1155L60.2515 20.072L63.4061 12.6987H65.6461Z" fill="#475467"/>
<path d="M72.6298 12.5867C73.6005 12.5867 74.4653 12.7982 75.2245 13.2213C75.996 13.6445 76.5996 14.2418 77.0351 15.0133C77.4707 15.7849 77.6885 16.6747 77.6885 17.6827C77.6885 18.6907 77.4707 19.5867 77.0351 20.3707C76.5996 21.1422 75.996 21.7396 75.2245 22.1627C74.4653 22.5858 73.6005 22.7973 72.6298 22.7973C71.2858 22.7973 70.2218 22.3493 69.4378 21.4533V26.288H67.1045V12.6987H69.3258V14.0053C69.7116 13.5325 70.1845 13.1778 70.7445 12.9413C71.3169 12.7049 71.9453 12.5867 72.6298 12.5867ZM72.3685 20.8C73.2271 20.8 73.9302 20.5138 74.4778 19.9413C75.0378 19.3689 75.3178 18.616 75.3178 17.6827C75.3178 16.7493 75.0378 15.9965 74.4778 15.424C73.9302 14.8516 73.2271 14.5653 72.3685 14.5653C71.8085 14.5653 71.3045 14.696 70.8565 14.9573C70.4085 15.2062 70.0538 15.5671 69.7925 16.04C69.5311 16.5129 69.4005 17.0605 69.4005 17.6827C69.4005 18.3049 69.5311 18.8525 69.7925 19.3253C70.0538 19.7982 70.4085 20.1653 70.8565 20.4267C71.3045 20.6756 71.8085 20.8 72.3685 20.8Z" fill="#475467"/>
<path d="M85.5573 12.5867C86.8142 12.5867 87.8222 12.9538 88.5813 13.688C89.3404 14.4222 89.72 15.5111 89.72 16.9547V22.6667H87.3867V17.2533C87.3867 16.3822 87.1813 15.7289 86.7707 15.2933C86.36 14.8453 85.7751 14.6213 85.016 14.6213C84.1573 14.6213 83.4791 14.8827 82.9813 15.4053C82.4835 15.9156 82.2347 16.656 82.2347 17.6267V22.6667H79.9013V8.81601H82.2347V13.856C82.6204 13.4453 83.0933 13.1342 83.6533 12.9227C84.2258 12.6987 84.8604 12.5867 85.5573 12.5867Z" fill="#475467"/>
<path d="M102.331 12.6987V22.6667H100.109V21.3973C99.736 21.8453 99.2693 22.1938 98.7093 22.4427C98.1493 22.6791 97.5457 22.7973 96.8986 22.7973C95.5671 22.7973 94.5155 22.4302 93.744 21.696C92.9849 20.9493 92.6053 19.848 92.6053 18.392V12.6987H94.9386V18.0747C94.9386 18.9707 95.1377 19.6427 95.536 20.0907C95.9466 20.5262 96.5253 20.744 97.272 20.744C98.1057 20.744 98.7653 20.4889 99.2506 19.9787C99.7484 19.456 99.9973 18.7093 99.9973 17.7387V12.6987H102.331Z" fill="#475467"/>
<path d="M108.466 22.7973C107.657 22.7973 106.867 22.6916 106.095 22.48C105.323 22.2685 104.707 22.0009 104.247 21.6773L105.143 19.904C105.591 20.2027 106.126 20.4453 106.748 20.632C107.383 20.8062 108.005 20.8933 108.615 20.8933C110.009 20.8933 110.706 20.5262 110.706 19.792C110.706 19.4436 110.525 19.2009 110.164 19.064C109.816 18.9271 109.25 18.7965 108.466 18.672C107.644 18.5476 106.972 18.4045 106.45 18.2427C105.939 18.0809 105.491 17.8009 105.106 17.4027C104.732 16.992 104.546 16.4258 104.546 15.704C104.546 14.7582 104.938 14.0053 105.722 13.4453C106.518 12.8729 107.588 12.5867 108.932 12.5867C109.617 12.5867 110.301 12.6676 110.986 12.8293C111.67 12.9787 112.23 13.184 112.666 13.4453L111.77 15.2187C110.923 14.7209 109.971 14.472 108.914 14.472C108.229 14.472 107.707 14.5778 107.346 14.7893C106.997 14.9885 106.823 15.256 106.823 15.592C106.823 15.9653 107.01 16.2329 107.383 16.3947C107.769 16.544 108.36 16.6871 109.156 16.824C109.953 16.9485 110.606 17.0916 111.116 17.2533C111.627 17.4151 112.062 17.6889 112.423 18.0747C112.796 18.4605 112.983 19.008 112.983 19.7173C112.983 20.6507 112.579 21.3973 111.77 21.9573C110.961 22.5173 109.859 22.7973 108.466 22.7973Z" fill="#475467"/>
</g>
</svg>
