<svg width="24" height="24" viewBox="0 0 24 24" fill="none" xmlns="http://www.w3.org/2000/svg">
<g clip-path="url(#clip0_516_63166)">
<path d="M24 11.9963C24 5.36892 18.6274 -0.00366211 12 -0.00366211C5.37258 -0.00366211 0 5.36892 0 11.9963C0 17.9858 4.3882 22.9503 10.125 23.8506V15.4651H7.07812V11.9963H10.125V9.35259C10.125 6.34509 11.9166 4.68384 14.6576 4.68384C15.9701 4.68384 17.3438 4.91821 17.3438 4.91821V7.87134H15.8306C14.34 7.87134 13.875 8.79642 13.875 9.74634V11.9963H17.2031L16.6711 15.4651H13.875V23.8506C19.6118 22.9503 24 17.9858 24 11.9963Z" fill="#98A2B3"/>
</g>
<defs>
<clipPath id="clip0_516_63166">
<rect width="24" height="24" fill="white" transform="translate(0 -0.00366211)"/>
</clipPath>
</defs>
</svg>
