<svg width="24" height="24" viewBox="0 0 24 24" fill="none" xmlns="http://www.w3.org/2000/svg">
<g clip-path="url(#clip0_516_63165)">
<path d="M22.2234 -0.00366211H1.77187C0.792187 -0.00366211 0 0.769776 0 1.72603V22.262C0 23.2182 0.792187 23.9963 1.77187 23.9963H22.2234C23.2031 23.9963 24 23.2182 24 22.2667V1.72603C24 0.769776 23.2031 -0.00366211 22.2234 -0.00366211ZM7.12031 20.4479H3.55781V8.99165H7.12031V20.4479ZM5.33906 7.43071C4.19531 7.43071 3.27188 6.50728 3.27188 5.36821C3.27188 4.22915 4.19531 3.30571 5.33906 3.30571C6.47813 3.30571 7.40156 4.22915 7.40156 5.36821C7.40156 6.50259 6.47813 7.43071 5.33906 7.43071ZM20.4516 20.4479H16.8937V14.8792C16.8937 13.5526 16.8703 11.8417 15.0422 11.8417C13.1906 11.8417 12.9094 13.2901 12.9094 14.7854V20.4479H9.35625V8.99165H12.7687V10.5573H12.8156C13.2891 9.65728 14.4516 8.70571 16.1813 8.70571C19.7859 8.70571 20.4516 11.0776 20.4516 14.162V20.4479Z" fill="#98A2B3"/>
</g>
<defs>
<clipPath id="clip0_516_63165">
<rect width="24" height="24" fill="white" transform="translate(0 -0.00366211)"/>
</clipPath>
</defs>
</svg>
