<svg width="98" height="32" viewBox="0 0 98 32" fill="none" xmlns="http://www.w3.org/2000/svg">
<g opacity="0.8">
<path d="M8.85168 14.8788C9.39985 12.8333 11.5025 10.7307 13.548 10.1825L26.3006 6.76494C28.3461 6.21677 29.56 7.4306 29.0118 9.47611L25.5942 22.2288C25.046 24.2743 22.9434 26.3769 20.8979 26.925L8.14527 30.3426C6.09975 30.8908 4.88592 29.677 5.4341 27.6315L8.85168 14.8788Z" fill="#98A2B3"/>
<path d="M3.73925 9.76623C4.28743 7.72071 6.39003 5.61812 8.43554 5.06994L21.1882 1.65236C23.2337 1.10418 24.4476 2.31801 23.8994 4.36353L20.4818 17.1162C19.9336 19.1617 17.831 21.2643 15.7855 21.8125L3.03284 25.23C0.98733 25.7782 -0.226503 24.5644 0.321673 22.5189L3.73925 9.76623Z" fill="#667085"/>
<path d="M40.8613 20.9493H45.248V22.6667H38.7333V9.69333H40.8613V20.9493Z" fill="#475467"/>
<path d="M46.3183 17.4773C46.3183 16.4444 46.5298 15.5298 46.9529 14.7333C47.3885 13.9369 47.9734 13.3209 48.7076 12.8853C49.4543 12.4373 50.2756 12.2133 51.1716 12.2133C51.9805 12.2133 52.6836 12.3751 53.2809 12.6987C53.8907 13.0098 54.376 13.4018 54.7369 13.8747V12.3813H56.8836V22.6667H54.7369V21.136C54.376 21.6213 53.8845 22.0258 53.2623 22.3493C52.64 22.6729 51.9307 22.8347 51.1343 22.8347C50.2507 22.8347 49.4418 22.6107 48.7076 22.1627C47.9734 21.7022 47.3885 21.0676 46.9529 20.2587C46.5298 19.4373 46.3183 18.5102 46.3183 17.4773ZM54.7369 17.5147C54.7369 16.8053 54.5876 16.1893 54.2889 15.6667C54.0027 15.144 53.6232 14.7458 53.1503 14.472C52.6774 14.1982 52.1672 14.0613 51.6196 14.0613C51.0721 14.0613 50.5618 14.1982 50.0889 14.472C49.616 14.7333 49.2303 15.1253 48.9316 15.648C48.6454 16.1582 48.5023 16.768 48.5023 17.4773C48.5023 18.1867 48.6454 18.8089 48.9316 19.344C49.2303 19.8791 49.616 20.2898 50.0889 20.576C50.5743 20.8498 51.0845 20.9867 51.6196 20.9867C52.1672 20.9867 52.6774 20.8498 53.1503 20.576C53.6232 20.3022 54.0027 19.904 54.2889 19.3813C54.5876 18.8462 54.7369 18.224 54.7369 17.5147Z" fill="#475467"/>
<path d="M68.9373 12.3813L62.628 27.5013H60.4253L62.516 22.4987L58.4653 12.3813H60.836L63.7293 20.2213L66.7346 12.3813H68.9373Z" fill="#475467"/>
<path d="M79.9699 17.272C79.9699 17.6578 79.945 18.0062 79.8952 18.3173H72.0366C72.0988 19.1387 72.4037 19.7982 72.9512 20.296C73.4988 20.7938 74.1708 21.0427 74.9672 21.0427C76.1121 21.0427 76.921 20.5636 77.3939 19.6053H79.6899C79.3788 20.5511 78.8126 21.3289 77.9912 21.9387C77.1823 22.536 76.1743 22.8347 74.9672 22.8347C73.9841 22.8347 73.1006 22.6169 72.3166 22.1813C71.545 21.7333 70.9352 21.1111 70.4872 20.3147C70.0517 19.5058 69.8339 18.5724 69.8339 17.5147C69.8339 16.4569 70.0454 15.5298 70.4686 14.7333C70.9041 13.9244 71.5077 13.3022 72.2792 12.8667C73.0632 12.4311 73.9592 12.2133 74.9672 12.2133C75.9379 12.2133 76.8028 12.4249 77.5619 12.848C78.321 13.2711 78.9121 13.8684 79.3352 14.64C79.7583 15.3991 79.9699 16.2764 79.9699 17.272ZM77.7486 16.6C77.7361 15.816 77.4561 15.1876 76.9086 14.7147C76.361 14.2418 75.6828 14.0053 74.8739 14.0053C74.1397 14.0053 73.5112 14.2418 72.9886 14.7147C72.4659 15.1751 72.1548 15.8036 72.0552 16.6H77.7486Z" fill="#475467"/>
<path d="M84.1921 13.8747C84.5032 13.352 84.9138 12.9476 85.4241 12.6613C85.9467 12.3627 86.5627 12.2133 87.2721 12.2133V14.416H86.7307C85.8969 14.416 85.2623 14.6276 84.8267 15.0507C84.4036 15.4738 84.1921 16.208 84.1921 17.2533V22.6667H82.0641V12.3813H84.1921V13.8747Z" fill="#475467"/>
<path d="M92.9614 22.8347C92.1526 22.8347 91.4246 22.6916 90.7775 22.4053C90.1428 22.1067 89.6388 21.7084 89.2655 21.2107C88.8921 20.7004 88.693 20.1342 88.6681 19.512H90.8708C90.9081 19.9476 91.1135 20.3147 91.4868 20.6133C91.8726 20.8996 92.3517 21.0427 92.9241 21.0427C93.5214 21.0427 93.9819 20.9307 94.3055 20.7067C94.6415 20.4702 94.8095 20.1716 94.8095 19.8107C94.8095 19.4249 94.6228 19.1387 94.2495 18.952C93.8886 18.7653 93.3099 18.56 92.5135 18.336C91.7419 18.1244 91.1134 17.9191 90.6281 17.72C90.1428 17.5209 89.7197 17.216 89.3588 16.8053C89.0103 16.3947 88.8361 15.8533 88.8361 15.1813C88.8361 14.6338 88.9979 14.136 89.3214 13.688C89.645 13.2276 90.1055 12.8667 90.7028 12.6053C91.3126 12.344 92.0094 12.2133 92.7934 12.2133C93.9632 12.2133 94.9028 12.512 95.6121 13.1093C96.3339 13.6942 96.7197 14.4969 96.7695 15.5173H94.6415C94.6041 15.0569 94.4174 14.6898 94.0814 14.416C93.7454 14.1422 93.2912 14.0053 92.7188 14.0053C92.1588 14.0053 91.7295 14.1111 91.4308 14.3227C91.1321 14.5342 90.9828 14.8142 90.9828 15.1627C90.9828 15.4364 91.0823 15.6667 91.2815 15.8533C91.4806 16.04 91.7232 16.1893 92.0095 16.3013C92.2957 16.4009 92.7188 16.5316 93.2788 16.6933C94.0255 16.8924 94.6352 17.0978 95.1081 17.3093C95.5934 17.5084 96.0103 17.8071 96.3588 18.2053C96.7072 18.6036 96.8877 19.1324 96.9001 19.792C96.9001 20.3769 96.7383 20.8996 96.4148 21.36C96.0912 21.8204 95.6308 22.1813 95.0334 22.4427C94.4486 22.704 93.7579 22.8347 92.9614 22.8347Z" fill="#475467"/>
</g>
</svg>
