<svg width="108" height="32" viewBox="0 0 108 32" fill="none" xmlns="http://www.w3.org/2000/svg">
<g opacity="0.8">
<path d="M15.2222 1.33334C7.122 1.33334 0.555542 7.89983 0.555542 16C0.555542 24.1002 7.122 30.6667 15.2222 30.6667C22.4896 30.6667 28.5223 25.3811 29.6861 18.4445H29.5808C28.4954 22.6617 24.6671 25.7778 20.1111 25.7778C14.711 25.7778 10.3333 21.4001 10.3333 16C10.3333 10.5999 14.711 6.22223 20.1111 6.22223C24.6671 6.22223 28.4954 9.33834 29.5808 13.5556H29.6861C28.5223 6.61893 22.4896 1.33334 15.2222 1.33334Z" fill="#98A2B3"/>
<path d="M0.555542 16C0.555542 7.89983 7.12203 1.33334 15.2222 1.33334C22.4895 1.33334 28.5223 6.61893 29.6861 13.5556H19.8031C18.7176 9.33834 14.8894 6.22223 10.3333 6.22223C4.9332 6.22223 0.555542 10.5999 0.555542 16Z" fill="#667085"/>
<path d="M0.555542 16C0.555542 24.1002 7.12203 30.6667 15.2222 30.6667C22.4895 30.6667 28.5223 25.3811 29.6861 18.4445H19.8031C18.7176 22.6617 14.8894 25.7778 10.3333 25.7778C4.9332 25.7778 0.555542 21.4001 0.555542 16Z" fill="#667085"/>
<path d="M50.8482 13.6714C50.4305 10.6553 48.1105 8.9053 45.101 8.9053C41.5546 8.9053 38.8832 11.4905 38.8832 15.8788C38.8832 20.2604 41.5215 22.8523 45.101 22.8523C48.3292 22.8523 50.4703 20.7642 50.8482 18.1723L48.369 18.1591C48.0574 19.75 46.7582 20.6449 45.1341 20.6449C42.9334 20.6449 41.3557 18.9943 41.3557 15.8788C41.3557 12.8163 42.9201 11.1127 45.1408 11.1127C46.7913 11.1127 48.0839 12.0473 48.369 13.6714H50.8482Z" fill="#475467"/>
<path d="M55.9241 22.8722C57.5217 22.8722 58.4762 22.1231 58.9137 21.268H58.9933V22.6667H61.3001V15.8523C61.3001 13.161 59.106 12.3523 57.1637 12.3523C55.0226 12.3523 53.3787 13.3068 52.8484 15.1629L55.0889 15.4811C55.3276 14.785 56.0037 14.1884 57.177 14.1884C58.2906 14.1884 58.9005 14.7585 58.9005 15.7595V15.7992C58.9005 16.4886 58.1779 16.5218 56.3815 16.714C54.4062 16.9261 52.5169 17.5161 52.5169 19.8097C52.5169 21.8116 53.9819 22.8722 55.9241 22.8722ZM56.5472 21.1089C55.5463 21.1089 54.8304 20.6515 54.8304 19.7699C54.8304 18.8485 55.6325 18.464 56.7063 18.3116C57.3361 18.2254 58.5955 18.0663 58.9071 17.8144V19.0142C58.9071 20.1477 57.9923 21.1089 56.5472 21.1089Z" fill="#475467"/>
<path d="M68.7972 12.4848H66.7887V10.0455H64.3891V12.4848H62.944V14.3409H64.3891V20.0019C64.3758 21.9176 65.7679 22.8589 67.5709 22.8059C68.2537 22.786 68.7243 22.6534 68.9828 22.5672L68.5785 20.6913C68.4459 20.7244 68.1741 20.7841 67.8758 20.7841C67.2726 20.7841 66.7887 20.572 66.7887 19.6042V14.3409H68.7972V12.4848Z" fill="#475467"/>
<path d="M73.734 22.8722C75.3316 22.8722 76.2861 22.1231 76.7236 21.268H76.8032V22.6667H79.11V15.8523C79.11 13.161 76.9158 12.3523 74.9736 12.3523C72.8325 12.3523 71.1886 13.3068 70.6583 15.1629L72.8988 15.4811C73.1374 14.785 73.8136 14.1884 74.9869 14.1884C76.1005 14.1884 76.7104 14.7585 76.7104 15.7595V15.7992C76.7104 16.4886 75.9878 16.5218 74.1914 16.714C72.216 16.9261 70.3268 17.5161 70.3268 19.8097C70.3268 21.8116 71.7918 22.8722 73.734 22.8722ZM74.3571 21.1089C73.3562 21.1089 72.6403 20.6515 72.6403 19.7699C72.6403 18.8485 73.4424 18.464 74.5162 18.3116C75.146 18.2254 76.4054 18.0663 76.717 17.8144V19.0142C76.717 20.1477 75.8022 21.1089 74.3571 21.1089Z" fill="#475467"/>
<path d="M83.9225 9.09091H81.5229V22.6667H83.9225V9.09091Z" fill="#475467"/>
<path d="M90.8313 22.8655C93.8143 22.8655 95.7101 20.7642 95.7101 17.6155C95.7101 14.4602 93.8143 12.3523 90.8313 12.3523C87.8484 12.3523 85.9525 14.4602 85.9525 17.6155C85.9525 20.7642 87.8484 22.8655 90.8313 22.8655ZM90.8446 20.9432C89.194 20.9432 88.3853 19.4716 88.3853 17.6089C88.3853 15.7462 89.194 14.2547 90.8446 14.2547C92.4686 14.2547 93.2773 15.7462 93.2773 17.6089C93.2773 19.4716 92.4686 20.9432 90.8446 20.9432Z" fill="#475467"/>
<path d="M102.175 26.697C104.926 26.697 106.954 25.4375 106.954 22.8324V12.4848H104.588V14.1686H104.455C104.091 13.4328 103.328 12.3523 101.532 12.3523C99.1786 12.3523 97.3292 14.1951 97.3292 17.5426C97.3292 20.8636 99.1786 22.5208 101.525 22.5208C103.269 22.5208 104.084 21.5862 104.455 20.8371H104.574V22.7661C104.574 24.2642 103.58 24.8807 102.215 24.8807C100.77 24.8807 100.133 24.1979 99.8415 23.6013L97.6805 24.125C98.118 25.5502 99.583 26.697 102.175 26.697ZM102.195 20.6383C100.61 20.6383 99.7752 19.4053 99.7752 17.5294C99.7752 15.6799 100.597 14.321 102.195 14.321C103.739 14.321 104.588 15.6004 104.588 17.5294C104.588 19.4716 103.726 20.6383 102.195 20.6383Z" fill="#475467"/>
</g>
</svg>
