<svg width="144" height="20" viewBox="0 0 144 20" fill="none" xmlns="http://www.w3.org/2000/svg">
<g clip-path="url(#clip0_5_1256)">
<path d="M41.9199 9.89687V10.3046C41.9199 12.1144 41.5962 13.6251 40.9488 14.8366C40.3547 15.9945 39.427 16.9478 38.2852 17.5736C37.0865 18.202 35.7478 18.5163 34.3944 18.4869C33.3561 18.4948 32.3268 18.2949 31.3671 17.8991C30.4392 17.5103 29.5975 16.9422 28.8902 16.2272C28.1658 15.5003 27.5934 14.6366 27.2062 13.6866C26.819 12.7365 26.6247 11.719 26.6348 10.6933C26.6264 9.66339 26.8242 8.64219 27.2164 7.6897C27.6086 6.73721 28.1874 5.87263 28.9187 5.14673C29.6453 4.43418 30.5052 3.87146 31.4493 3.49066C32.442 3.09006 33.5041 2.88921 34.5747 2.89966C35.7606 2.8857 36.9359 3.12378 38.0227 3.59812C38.9281 3.99004 39.7392 4.57084 40.4015 5.30159C40.4661 5.37303 40.5002 5.46682 40.4967 5.56302C40.4931 5.65921 40.4522 5.75024 40.3825 5.81674L38.9337 7.24526C38.8638 7.31435 38.7695 7.35311 38.6712 7.35311C38.5729 7.35311 38.4785 7.31435 38.4086 7.24526C37.9831 6.7739 37.4667 6.39335 36.8902 6.12647C36.1613 5.78828 35.3657 5.61765 34.562 5.62712C33.6701 5.60833 32.7892 5.82646 32.0092 6.2592C31.2766 6.67454 30.675 7.28654 30.2726 8.02589C29.8403 8.83628 29.6226 9.74359 29.6399 10.6617C29.6213 11.5858 29.8321 12.5 30.2536 13.3228C30.6375 14.0652 31.2201 14.6866 31.9365 15.1179C32.6766 15.5523 33.5236 15.7712 34.3817 15.75C35.2245 15.7742 36.0605 15.593 36.8175 15.2222C37.4837 14.8794 38.0257 14.3368 38.3675 13.6704C38.4906 13.4387 38.5903 13.1951 38.6648 12.9435C38.6814 12.8871 38.6847 12.8275 38.6745 12.7696C38.6642 12.7116 38.6408 12.6568 38.6059 12.6094C38.571 12.562 38.5256 12.5233 38.4733 12.4963C38.421 12.4693 38.3631 12.4547 38.3042 12.4537L34.5842 12.4189C34.484 12.4181 34.3883 12.3777 34.3178 12.3067C34.2473 12.2357 34.2077 12.1397 34.2077 12.0396V10.273C34.2077 10.2233 34.2176 10.1741 34.2367 10.1283C34.2558 10.0825 34.2838 10.0409 34.3191 10.0059C34.3544 9.97093 34.3963 9.9433 34.4423 9.92459C34.4883 9.90587 34.5376 9.89645 34.5873 9.89687H41.9199Z" fill="#2C2C38"/>
<path d="M51.9792 8.98034L50.6822 10.4626C50.6198 10.5312 50.5339 10.574 50.4415 10.5828C50.3491 10.5916 50.2567 10.5656 50.1824 10.51C50.0829 10.4453 49.9769 10.3913 49.8661 10.3488C49.6208 10.2603 49.3613 10.2175 49.1006 10.2224C48.8285 10.2114 48.5571 10.2561 48.303 10.354C48.0489 10.4518 47.8176 10.6007 47.6233 10.7913C47.2437 11.1705 47.0508 11.7394 47.0508 12.5232V17.8959C47.0508 17.9957 47.0111 18.0913 46.9405 18.1619C46.8699 18.2324 46.7742 18.272 46.6743 18.272H44.6087C44.5089 18.272 44.4131 18.2324 44.3425 18.1619C44.2719 18.0913 44.2323 17.9957 44.2323 17.8959V8.25028C44.2318 8.20063 44.2413 8.15138 44.26 8.10539C44.2787 8.05939 44.3064 8.01756 44.3414 7.9823C44.3764 7.94704 44.418 7.91906 44.4639 7.89996C44.5098 7.88086 44.559 7.87103 44.6087 7.87103H46.6743C46.724 7.87103 46.7732 7.88086 46.8191 7.89996C46.865 7.91906 46.9066 7.94704 46.9416 7.9823C46.9766 8.01756 47.0043 8.05939 47.023 8.10539C47.0417 8.15138 47.0512 8.20063 47.0508 8.25028V8.79704L47.0761 8.76859C47.6897 8.02589 48.585 7.65612 49.7491 7.65612C50.2135 7.64868 50.6748 7.73355 51.1061 7.9058C51.4132 8.03581 51.6957 8.21754 51.9412 8.44307C52.0165 8.50996 52.0626 8.6036 52.0697 8.70399C52.0768 8.80437 52.0443 8.90355 51.9792 8.98034Z" fill="#2C2C38"/>
<path d="M57.8155 18.4901C56.8188 18.5076 55.8357 18.2576 54.9685 17.7664C54.1402 17.2993 53.4488 16.6238 52.963 15.8069C52.4641 14.9715 52.2068 14.0142 52.2196 13.0415C52.2065 12.0752 52.4628 11.1242 52.9598 10.2951C53.4452 9.48471 54.1359 8.81648 54.9622 8.35775C55.8357 7.88253 56.8145 7.63354 57.8092 7.63354C58.8038 7.63354 59.7826 7.88253 60.6561 8.35775C61.4775 8.81971 62.1644 9.4874 62.649 10.2951C63.1424 11.1255 63.3964 12.0759 63.3829 13.0415C63.3964 14.0035 63.1503 14.9514 62.6705 15.7856C62.1907 16.6198 61.4949 17.3094 60.6561 17.7822C59.7891 18.2664 58.8085 18.5108 57.8155 18.4901ZM57.7933 15.8606C58.2869 15.8709 58.7741 15.7486 59.2042 15.5067C59.6099 15.276 59.9397 14.9322 60.1532 14.5174C60.3817 14.0673 60.4968 13.5683 60.4885 13.0636C60.4979 12.5608 60.3793 12.0638 60.1437 11.6193C59.9225 11.2126 59.5944 10.8738 59.1947 10.6396C58.7684 10.3968 58.284 10.2744 57.7933 10.2856C57.3099 10.276 56.8331 10.3984 56.4141 10.6396C56.0145 10.8738 55.6864 11.2126 55.4651 11.6193C55.2281 12.0632 55.1094 12.5606 55.1203 13.0636C55.1106 13.5696 55.2292 14.0697 55.4651 14.5174C55.6843 14.9282 56.0127 15.2705 56.4141 15.5067C56.8331 15.7478 57.3099 15.8702 57.7933 15.8606Z" fill="#2C2C38"/>
<path d="M79.9555 8.37988L76.3683 18.0255C76.3417 18.098 76.2934 18.1605 76.2301 18.2046C76.1667 18.2487 76.0913 18.2722 76.014 18.272H74.4703C74.3931 18.2722 74.3177 18.2487 74.2543 18.2046C74.1909 18.1605 74.1427 18.098 74.1161 18.0255L72.3319 13.1458C72.305 13.0732 72.2564 13.0106 72.1928 12.9664C72.1292 12.9222 72.0536 12.8985 71.9761 12.8985C71.8986 12.8985 71.823 12.9222 71.7593 12.9664C71.6957 13.0106 71.6472 13.0732 71.6202 13.1458L69.8361 18.0255C69.8093 18.0985 69.7605 18.1613 69.6965 18.2055C69.6325 18.2496 69.5564 18.2729 69.4786 18.272H67.9824C67.9054 18.2713 67.8303 18.2474 67.7671 18.2035C67.7039 18.1595 67.6555 18.0975 67.6281 18.0255L64.0314 8.38304C64.0116 8.32711 64.0051 8.2673 64.0126 8.20844C64.0201 8.14957 64.0413 8.09328 64.0746 8.0441C64.1078 7.99491 64.1521 7.9542 64.2039 7.92524C64.2558 7.89629 64.3137 7.87989 64.3731 7.87737H66.4007C66.48 7.87743 66.5573 7.90253 66.6215 7.94907C66.6857 7.99561 66.7335 8.06121 66.7582 8.13652L68.4379 13.13C68.4636 13.2048 68.512 13.2696 68.5764 13.3155C68.6407 13.3615 68.7179 13.3861 68.7969 13.3861C68.876 13.3861 68.9532 13.3615 69.0175 13.3155C69.0819 13.2696 69.1303 13.2048 69.156 13.13L70.8768 8.1302C70.9024 8.05574 70.9506 7.99109 71.0147 7.94521C71.0787 7.89934 71.1555 7.87453 71.2343 7.87421H72.74C72.8187 7.87499 72.8953 7.89998 72.9592 7.94579C73.0232 7.9916 73.0715 8.05599 73.0975 8.1302L74.8183 13.13C74.8431 13.2051 74.891 13.2705 74.9552 13.3169C75.0194 13.3632 75.0966 13.3882 75.1758 13.3882C75.255 13.3882 75.3321 13.3632 75.3963 13.3169C75.4605 13.2705 75.5084 13.2051 75.5332 13.13L77.2098 8.13652C77.235 8.06096 77.2834 7.99526 77.3482 7.94874C77.4129 7.90222 77.4906 7.87725 77.5704 7.87737H79.6012C79.6613 7.87811 79.7203 7.89307 79.7734 7.92103C79.8266 7.94899 79.8723 7.98914 79.9069 8.03819C79.9415 8.08724 79.9639 8.14378 79.9724 8.20318C79.9808 8.26258 79.975 8.32314 79.9555 8.37988Z" fill="#2C2C38"/>
<path d="M100.492 11.6699V17.8959C100.492 17.9957 100.452 18.0913 100.382 18.1619C100.311 18.2324 100.215 18.272 100.115 18.272H98.0465C97.9968 18.2725 97.9475 18.263 97.9015 18.2443C97.8555 18.2256 97.8136 18.198 97.7783 18.163C97.743 18.128 97.715 18.0864 97.6959 18.0406C97.6768 17.9948 97.6669 17.9456 97.6669 17.8959V12.302C97.681 12.0241 97.6366 11.7463 97.5365 11.4866C97.4363 11.2269 97.2827 10.9912 97.0856 10.7946C96.8885 10.5979 96.6523 10.4448 96.3923 10.3452C96.1322 10.2456 95.8541 10.2016 95.576 10.2161C95.2016 10.2092 94.8315 10.2973 94.5005 10.4721C94.1897 10.643 93.9349 10.8997 93.7666 11.2116C93.5802 11.5466 93.4863 11.9251 93.4945 12.3083V17.8959C93.4945 17.9957 93.4549 18.0913 93.3843 18.1619C93.3137 18.2324 93.2179 18.272 93.1181 18.272H91.0525C91.0028 18.2725 90.9535 18.263 90.9074 18.2443C90.8614 18.2256 90.8195 18.198 90.7842 18.163C90.7489 18.128 90.7209 18.0864 90.7018 18.0406C90.6827 17.9948 90.6728 17.9456 90.6729 17.8959V3.07981C90.6728 3.03015 90.6827 2.98099 90.7018 2.93515C90.7209 2.88932 90.7489 2.84771 90.7842 2.81275C90.8195 2.77778 90.8614 2.75015 90.9074 2.73143C90.9535 2.71272 91.0028 2.7033 91.0525 2.70372H93.1181C93.2179 2.70372 93.3137 2.74334 93.3843 2.81387C93.4549 2.8844 93.4945 2.98006 93.4945 3.07981V8.02273C93.4935 8.09266 93.5118 8.16152 93.5474 8.2217C93.5831 8.28188 93.6347 8.33104 93.6966 8.36374C93.7584 8.39645 93.8281 8.41143 93.898 8.40702C93.9679 8.40262 94.0351 8.379 94.0924 8.33878C94.1746 8.28189 94.26 8.23132 94.3486 8.18076C94.9963 7.84028 95.7172 7.66236 96.4491 7.66236C97.1809 7.66236 97.9018 7.84028 98.5495 8.18076C99.1494 8.51219 99.6454 9.00342 99.9825 9.59979C100.33 10.2337 100.505 10.9473 100.492 11.6699Z" fill="#2C2C38"/>
<path d="M116.881 11.3064C116.607 10.9813 116.288 10.698 115.932 10.4658C115.88 10.4347 115.837 10.3916 115.805 10.3403C115.774 10.2889 115.755 10.2308 115.751 10.1707C115.746 10.1106 115.756 10.0503 115.78 9.99497C115.804 9.93963 115.841 9.89081 115.888 9.85264C116.099 9.69076 116.292 9.50637 116.463 9.30272C116.984 8.68421 117.262 7.89833 117.248 7.09041C117.261 6.3892 117.075 5.69866 116.711 5.09896C116.347 4.49925 115.82 4.015 115.192 3.70242C114.407 3.31184 113.537 3.12181 112.661 3.14935H106.901C106.851 3.14935 106.802 3.15918 106.756 3.17828C106.71 3.19737 106.668 3.22536 106.633 3.26062C106.598 3.29588 106.571 3.33771 106.552 3.38371C106.533 3.4297 106.524 3.47895 106.524 3.5286V17.896C106.524 17.9957 106.564 18.0914 106.634 18.1619C106.705 18.2324 106.801 18.272 106.901 18.272H112.746C113.693 18.2948 114.632 18.0899 115.483 17.6747C116.191 17.3153 116.787 16.7688 117.207 16.0945C117.603 15.4395 117.81 14.6884 117.808 13.9233C117.829 12.9671 117.5 12.0362 116.881 11.3064ZM112.3 5.526C112.825 5.50005 113.342 5.66136 113.759 5.9811C113.949 6.15353 114.097 6.36701 114.191 6.60526C114.286 6.8435 114.325 7.10024 114.306 7.35589C114.324 7.60957 114.285 7.86413 114.19 8.10017C114.095 8.33622 113.948 8.54754 113.759 8.71804C113.34 9.03332 112.824 9.19211 112.3 9.16682H109.814C109.713 9.16682 109.617 9.12686 109.546 9.05574C109.474 8.98462 109.434 8.88815 109.434 8.78757V5.90209C109.434 5.85243 109.444 5.80327 109.463 5.75743C109.483 5.71159 109.511 5.66999 109.546 5.63503C109.581 5.60006 109.623 5.57243 109.669 5.55371C109.715 5.535 109.764 5.52558 109.814 5.526H112.3ZM114.274 15.238C114.06 15.4553 113.802 15.6241 113.517 15.7332C113.233 15.8422 112.928 15.8889 112.623 15.8701H109.814C109.713 15.8701 109.617 15.8302 109.546 15.759C109.474 15.6879 109.434 15.5914 109.434 15.4909V11.9101C109.434 11.8604 109.444 11.8113 109.463 11.7654C109.483 11.7196 109.511 11.678 109.546 11.643C109.581 11.6081 109.623 11.5804 109.669 11.5617C109.715 11.543 109.764 11.5336 109.814 11.534H112.623C113.049 11.5224 113.47 11.6226 113.844 11.8247C114.17 12.0089 114.436 12.2847 114.606 12.618C114.782 12.9578 114.871 13.3355 114.866 13.7179C114.873 14.2819 114.661 14.8268 114.274 15.238Z" fill="#2C2C38"/>
<path d="M121.246 6.19285C121.034 6.19895 120.823 6.16109 120.627 6.08167C120.43 6.00226 120.252 5.883 120.104 5.73143C119.813 5.42009 119.652 5.01007 119.652 4.58419C119.652 4.15831 119.813 3.74829 120.104 3.43695C120.409 3.13318 120.822 2.96259 121.253 2.96259C121.683 2.96259 122.096 3.13318 122.401 3.43695C122.684 3.75198 122.841 4.1606 122.841 4.58419C122.841 5.00778 122.684 5.4164 122.401 5.73143C122.251 5.8846 122.071 6.00479 121.872 6.08426C121.674 6.16373 121.46 6.20072 121.246 6.19285ZM119.823 17.8865V8.2503C119.823 8.14971 119.863 8.05325 119.934 7.98213C120.005 7.911 120.102 7.87105 120.202 7.87105H122.29C122.391 7.87105 122.487 7.911 122.559 7.98213C122.63 8.05325 122.67 8.14971 122.67 8.2503V17.896C122.67 17.9456 122.66 17.9948 122.641 18.0406C122.622 18.0864 122.594 18.1281 122.558 18.163C122.523 18.198 122.481 18.2256 122.435 18.2443C122.389 18.263 122.34 18.2725 122.29 18.272H120.202C120.153 18.2725 120.103 18.263 120.057 18.2443C120.011 18.2256 119.969 18.198 119.934 18.163C119.899 18.1281 119.871 18.0864 119.852 18.0406C119.833 17.9948 119.823 17.9456 119.823 17.896V17.8865Z" fill="#2C2C38"/>
<path d="M143.114 10.175C142.687 9.40721 142.061 8.76855 141.302 8.32612C140.492 7.86099 139.572 7.62498 138.638 7.64346C137.657 7.62972 136.69 7.87969 135.839 8.3672C135.025 8.83176 134.346 9.49929 133.868 10.3046C133.496 10.9271 133.254 11.6181 133.155 12.3364C133.056 13.0546 133.103 13.7853 133.293 14.485C133.484 15.1846 133.813 15.8388 134.262 16.4086C134.71 16.9783 135.269 17.4519 135.905 17.8011C136.799 18.2776 137.799 18.518 138.812 18.4996C139.621 18.5072 140.424 18.3524 141.172 18.0445C141.764 17.8042 142.302 17.4474 142.754 16.9952C142.79 16.9599 142.818 16.9178 142.837 16.8715C142.857 16.8251 142.867 16.7753 142.867 16.725C142.867 16.6747 142.857 16.6249 142.837 16.5785C142.818 16.5321 142.79 16.4901 142.754 16.4548L141.618 15.3202C141.549 15.2548 141.457 15.2184 141.362 15.2184C141.267 15.2184 141.175 15.2548 141.106 15.3202C140.848 15.5556 140.552 15.7439 140.229 15.8764C139.771 16.0631 139.279 16.1545 138.784 16.145C138.243 16.1573 137.709 16.0277 137.234 15.769C136.792 15.5204 136.435 15.145 136.209 14.6912C136.114 14.5015 136.04 14.3023 135.987 14.0971H143.288C143.377 14.0955 143.463 14.0631 143.53 14.0054C143.598 13.9478 143.643 13.8684 143.658 13.781C143.681 13.6578 143.699 13.544 143.712 13.4365C143.733 13.2476 143.742 13.0577 143.741 12.8677C143.769 11.9311 143.553 11.0033 143.114 10.175ZM136 11.9859C136.05 11.7986 136.118 11.6166 136.202 11.4423C136.409 11.0047 136.739 10.6368 137.151 10.3836C137.596 10.1271 138.103 9.99811 138.616 10.0106C139.086 9.99063 139.552 10.1 139.964 10.3267C140.333 10.5508 140.625 10.8814 140.802 11.2748C140.824 11.3222 140.846 11.3696 140.865 11.417C140.89 11.4746 140.9 11.5373 140.894 11.5997C140.888 11.662 140.867 11.7219 140.833 11.7742C140.798 11.8264 140.752 11.8694 140.697 11.8991C140.641 11.9289 140.58 11.9446 140.517 11.9448L136 11.9859Z" fill="#2C2C38"/>
<path d="M86.4372 10.3488C86.3875 10.3484 86.3382 10.3578 86.2921 10.3765C86.2461 10.3953 86.2042 10.4229 86.169 10.4579C86.1337 10.4928 86.1056 10.5344 86.0865 10.5803C86.0674 10.6261 86.0576 10.6753 86.0576 10.7249V14.252C86.0576 15.5888 87.9714 15.494 87.9714 15.494H88.1201C88.219 15.494 88.314 15.5333 88.384 15.6032C88.454 15.6732 88.4933 15.768 88.4933 15.8669V17.8959C88.4933 17.9965 88.4533 18.093 88.3821 18.1641C88.311 18.2352 88.2144 18.2752 88.1137 18.2752H87.0192C86.0125 18.2752 85.0469 17.8756 84.3351 17.1644C83.6232 16.4532 83.2233 15.4885 83.2233 14.4827V10.7218C83.2233 10.622 83.1836 10.5263 83.113 10.4558C83.0424 10.3853 82.9467 10.3457 82.8468 10.3457H81.1671C81.1174 10.3457 81.0682 10.3358 81.0223 10.3167C80.9764 10.2976 80.9348 10.2696 80.8998 10.2344C80.8648 10.1991 80.8371 10.1573 80.8184 10.1113C80.7997 10.0653 80.7902 10.0161 80.7907 9.96641V8.25029C80.7911 8.20009 80.8015 8.15047 80.8214 8.10436C80.8413 8.05826 80.8702 8.0166 80.9065 7.98184C80.9427 7.94708 80.9856 7.91993 81.0325 7.90199C81.0795 7.88404 81.1295 7.87567 81.1797 7.87736H82.8595C82.9092 7.87736 82.9584 7.86753 83.0043 7.84843C83.0501 7.82933 83.0918 7.80135 83.1268 7.76609C83.1618 7.73083 83.1894 7.689 83.2082 7.643C83.2269 7.59701 83.2363 7.54776 83.2359 7.49811V3.07349C83.2359 3.02384 83.2457 2.97467 83.2649 2.92883C83.284 2.883 83.312 2.8414 83.3473 2.80643C83.3826 2.77147 83.4244 2.74383 83.4705 2.72512C83.5165 2.7064 83.5658 2.69698 83.6155 2.6974H85.6811C85.781 2.6974 85.8767 2.73702 85.9473 2.80756C86.0179 2.87809 86.0576 2.97375 86.0576 3.07349V7.49811C86.0576 7.54791 86.0674 7.59723 86.0865 7.64324C86.1055 7.68925 86.1335 7.73106 86.1688 7.76628C86.204 7.80149 86.2459 7.82943 86.2919 7.84849C86.338 7.86755 86.3873 7.87736 86.4372 7.87736H88.1137C88.1634 7.87694 88.2127 7.88636 88.2588 7.90507C88.3048 7.92379 88.3467 7.95142 88.382 7.98639C88.4172 8.02135 88.4453 8.06296 88.4644 8.10879C88.4835 8.15463 88.4933 8.20379 88.4933 8.25345V9.97273C88.4933 10.0733 88.4533 10.1698 88.3821 10.2409C88.311 10.312 88.2144 10.352 88.1137 10.352L86.4372 10.3488Z" fill="#2C2C38"/>
<path d="M129.784 10.4215C129.734 10.4215 129.685 10.4313 129.639 10.4504C129.593 10.4695 129.552 10.4975 129.517 10.5328C129.482 10.568 129.454 10.6099 129.435 10.6559C129.417 10.7019 129.407 10.7511 129.408 10.8008V14.3246C129.408 15.6615 131.321 15.5667 131.321 15.5667H131.47C131.519 15.5667 131.568 15.5763 131.613 15.5951C131.658 15.6138 131.699 15.6413 131.734 15.6759C131.769 15.7105 131.796 15.7517 131.815 15.7969C131.834 15.8422 131.843 15.8906 131.843 15.9396V17.9686C131.843 18.0692 131.803 18.1657 131.732 18.2368C131.661 18.3079 131.564 18.3479 131.464 18.3479H130.366C129.365 18.3437 128.406 17.9445 127.698 17.2371C126.99 16.5297 126.59 15.5715 126.586 14.5712V10.8008C126.586 10.7511 126.577 10.7019 126.558 10.6559C126.539 10.6099 126.512 10.568 126.477 10.5328C126.442 10.4975 126.4 10.4695 126.354 10.4504C126.308 10.4313 126.259 10.4215 126.209 10.4215H124.53C124.48 10.4219 124.431 10.4125 124.385 10.3938C124.339 10.3751 124.297 10.3474 124.262 10.3125C124.226 10.2775 124.198 10.2359 124.179 10.1901C124.16 10.1442 124.15 10.0951 124.15 10.0454V8.32613C124.15 8.22554 124.19 8.12908 124.261 8.05796C124.333 7.98683 124.429 7.94688 124.53 7.94688H126.209C126.26 7.94689 126.309 7.93686 126.356 7.91737C126.402 7.89788 126.444 7.86932 126.479 7.83339C126.514 7.79746 126.542 7.75487 126.56 7.70814C126.578 7.66141 126.587 7.61148 126.586 7.5613V3.04188C126.586 2.94213 126.626 2.84647 126.696 2.77594C126.767 2.70541 126.862 2.66578 126.962 2.66578H129.028C129.078 2.66537 129.127 2.67479 129.173 2.6935C129.219 2.71222 129.261 2.73985 129.296 2.77482C129.331 2.80978 129.36 2.85138 129.379 2.89722C129.398 2.94306 129.408 2.99222 129.408 3.04188V7.5613C129.408 7.66105 129.447 7.75671 129.518 7.82724C129.588 7.89777 129.684 7.93739 129.784 7.93739H131.464C131.564 7.93739 131.661 7.97735 131.732 8.04848C131.803 8.1196 131.843 8.21606 131.843 8.31665V10.0359C131.843 10.0856 131.833 10.1347 131.814 10.1806C131.795 10.2264 131.767 10.268 131.732 10.303C131.697 10.338 131.655 10.3656 131.609 10.3843C131.563 10.403 131.513 10.4124 131.464 10.412L129.784 10.4215Z" fill="#2C2C38"/>
<path d="M9.59715 0.330229C9.64696 0.328964 9.69653 0.337674 9.74291 0.355848C9.7893 0.374023 9.83158 0.401293 9.86725 0.436049C9.90293 0.470806 9.93127 0.512347 9.95062 0.558222C9.96997 0.604098 9.97993 0.653379 9.97991 0.703161V19.5014C9.98166 19.5523 9.97297 19.6029 9.9544 19.6503C9.93582 19.6976 9.90774 19.7407 9.87189 19.7768C9.83604 19.8129 9.79317 19.8413 9.74592 19.8603C9.69868 19.8792 9.64805 19.8883 9.59715 19.887C7.09919 19.7897 4.73317 18.7412 2.98443 16.9564C1.23568 15.1716 0.236784 12.786 0.192627 10.2888C0.192627 10.2256 0.192627 10.1655 0.192627 10.1023C0.192327 7.57492 1.17151 5.14559 2.92483 3.32374C4.67815 1.5019 7.06941 0.42907 9.59715 0.330229Z" fill="#101828"/>
<path d="M21.0104 19.571H12.9819C12.9148 19.5722 12.8481 19.5601 12.7858 19.5352C12.7234 19.5103 12.6667 19.4732 12.619 19.4261C12.5712 19.3789 12.5334 19.3228 12.5077 19.2608C12.482 19.1988 12.469 19.1324 12.4694 19.0653V11.3254C12.4694 11.1577 12.5361 10.997 12.6547 10.8784C12.7734 10.7599 12.9343 10.6933 13.1021 10.6933H13.3267C18.0527 10.6933 21.235 14.3784 21.5007 19.0274C21.5054 19.0955 21.4963 19.1639 21.474 19.2284C21.4518 19.293 21.4167 19.3524 21.3709 19.4031C21.3252 19.4538 21.2697 19.4948 21.2077 19.5236C21.1458 19.5525 21.0787 19.5686 21.0104 19.571Z" fill="#101828"/>
<path d="M14.7122 7.49493C16.2496 7.49493 17.496 6.24975 17.496 4.71374C17.496 3.17774 16.2496 1.93256 14.7122 1.93256C13.1748 1.93256 11.9285 3.17774 11.9285 4.71374C11.9285 6.24975 13.1748 7.49493 14.7122 7.49493Z" fill="#101828"/>
</g>
<defs>
<clipPath id="clip0_5_1256">
<rect width="144" height="20" fill="white"/>
</clipPath>
</defs>
</svg>
